<?xml version="1.0" encoding="utf-8"?>
<!-- Generator: Adobe Illustrator 18.0.0, SVG Export Plug-In . SVG Version: 6.00 Build 0)  -->
<!DOCTYPE svg PUBLIC "-//W3C//DTD SVG 1.1//EN" "http://www.w3.org/Graphics/SVG/1.1/DTD/svg11.dtd">
<svg version="1.1" id="Layer_1" xmlns="http://www.w3.org/2000/svg" xmlns:xlink="http://www.w3.org/1999/xlink" x="0px" y="0px"
	 viewBox="0 0 110 110" enable-background="new 0 0 110 110" xml:space="preserve">
<g id="R-Multicolor">
	<circle fill="#50A4DD" cx="55" cy="55" r="55"/>
	<g>
		<g>
			<path fill="#FBE158" d="M27.1,71.2L83,50.8l-0.2-26c0-0.6-0.3-1.3-0.9-1.6c-0.5-0.4-1.2-0.5-1.8-0.2L26.9,42.4L27.1,71.2z"/>
		</g>
		<g>
			<path fill="#FCF6C2" d="M27.1,71.2L83,50.8L55.3,87C43.1,87.1,31.9,79.8,27.1,71.2z"/>
		</g>
		<g>
			<circle fill="#F3B607" cx="57.9" cy="40" r="1"/>
		</g>
		<g>
			<circle fill="#F3B607" cx="32.1" cy="64.2" r="1"/>
		</g>
		<g>
			<circle fill="#F3B607" cx="39" cy="55.1" r="4"/>
		</g>
		<g>
			<circle fill="#F3B607" cx="70" cy="51.9" r="1"/>
		</g>
		<g>
			<path fill="#F3B607" d="M65.2,31.1C65.2,31.1,65.3,31,65.2,31.1c0.8-1,0.7-2,0.2-2.7l-3.6,1.3C61.9,31.2,63.6,32.2,65.2,31.1z"/>
		</g>
		<g>
			<circle fill="#F3B607" cx="45.9" cy="45.1" r="2"/>
		</g>
		<g>
			<circle fill="#F3B607" cx="72.9" cy="40.9" r="2"/>
		</g>
		<g>
			
				<ellipse transform="matrix(1 -8.299714e-03 8.299714e-03 1 -0.6582 0.436)" fill="#FACB1B" cx="52.2" cy="79.5" rx="3" ry="1.5"/>
		</g>
		<g>
			
				<ellipse transform="matrix(1 -8.599682e-03 8.599682e-03 1 -0.5888 0.5066)" fill="#FACB1B" cx="58.6" cy="68.7" rx="2.5" ry="1.3"/>
		</g>
		<g>
			
				<ellipse transform="matrix(1 -8.299714e-03 8.299714e-03 1 -0.6052 0.3648)" fill="#FACB1B" cx="43.6" cy="73.1" rx="4.5" ry="2"/>
		</g>
		<g>
			<ellipse transform="matrix(1 -8.299714e-03 8.299714e-03 1 -0.5114 0.567)" fill="#FACB1B" cx="68.1" cy="61.9" rx="2" ry="1"/>
		</g>
	</g>
</g>
</svg>
