<?xml version="1.0" encoding="utf-8"?>
<!-- Generator: Adobe Illustrator 18.0.0, SVG Export Plug-In . SVG Version: 6.00 Build 0)  -->
<!DOCTYPE svg PUBLIC "-//W3C//DTD SVG 1.1//EN" "http://www.w3.org/Graphics/SVG/1.1/DTD/svg11.dtd">
<svg version="1.1" id="Layer_1" xmlns="http://www.w3.org/2000/svg" xmlns:xlink="http://www.w3.org/1999/xlink" x="0px" y="0px"
	 viewBox="0 0 110 110" enable-background="new 0 0 110 110" xml:space="preserve">
<circle cx="55" cy="55" r="55"/>
<path fill="#E04F5F" d="M41,39.9c8.6-4.6,18.1-5,26.7-0.2c-7.7-16.6,11-26.6,22.5-14.7c11.2,11.5,1.4,30.4-13.7,24.8
	c3.4,5.6,5.4,13.9,2.7,20.2c0.8,5.9-6.5,16.4-18,18c-2.5,2.8-8.5,8.3-16.3-0.6c-10.9-1.3-20.1-14.6-16.2-19.5
	c-1.9-6.7,1.6-16.2,4.4-20c-10.9,4.7-23.8-8.1-16.5-22.1C25.6,8.5,50,21.1,41,39.9L41,39.9z"/>
<path d="M55,42.2c1-2.3,4-5.8,10-2.8c6.8,3.4,10.3,16.7,3.1,24.2c4.7-1.3,10.2,2.6,10.2,7.6c0,5.8-7.3,14.1-16.3,15.9
	c0.4-0.4,2-2.1,1.7-2.6c-10.1,11.5-14.2,6.2-20.4,0.2c-0.1,0.5,0.8,1.5,1.2,1.9c-6.8-2.3-12.3-6.6-14.9-13c-2.2-6.1,3-11.1,10-9.7
	c-7.7-10.3-1.5-23,7.7-25.7C52.5,36.5,54.5,41.2,55,42.2L55,42.2z"/>
<path fill="#E04F5F" d="M52.2,61.7c0.7-0.1,2.7-0.2,3.5-0.1c-0.9-6.2,0.8-15.9,4.2-15.6c3,0.3,4.5,10-0.1,16.5
	c0.9,0.5,2.1,1.2,2.7,2.2c-6-3.9-13.1-2-17.3,0.2c0.4-0.9,2.1-1.5,3.2-2.1c-4-5.3-2.1-16.6,1.7-16.8C53.5,45.6,53.8,57.4,52.2,61.7
	L52.2,61.7z"/>
<path d="M52.2,58.3c-0.7-5.4-5.3-0.1-2.7,4c-0.2,0.1-0.4,0.1-0.6,0.2c-3.6-5-1.7-16,1.1-16.1C52.7,46.4,52.8,57.2,52.2,58.3
	L52.2,58.3z"/>
<path d="M59.8,46.6c2.1,0,3.7,10.1-0.6,15.7c-0.2,0-0.4-0.1-0.6-0.2c2.4-6.3-1.9-7.6-2.5-3.5C55.8,55.2,57.4,46.5,59.8,46.6
	L59.8,46.6z"/>
<path fill="#E04F5F" d="M39.3,68.2c-0.9,0.6-2.1,1-3,1.8c4.5,10.7,23.9,15.7,35.6-0.2c-1.2-1-2.4-1.1-3.8-1.6
	c2.7-0.7,6.7,1.8,6.6,4.2c-0.6-0.7-1.4-1.8-2.5-2.4c-1.7,2.7-3.9,4.8-6.3,6.7c-3.5,4.8-6.1,12-12.2,12.7c-7,0.8-10.9-10-12.7-12.4
	c-2.1-1.8-4-4-5.2-6.6c-1.1,0.9-1.5,1.8-2.3,2.7C33.3,71.2,36.3,68,39.3,68.2L39.3,68.2z"/>
<path fill="#E04F5F" d="M53.7,63.9c10.4-0.1,9.6,9.4,0.2,9.9C43.4,74.4,43.3,64,53.7,63.9L53.7,63.9z"/>
<path d="M53.9,84.3c0,0-1.5,1.3-1.6,2.3c3.6-3.9,7.5-2.2,7.7-2.1c-2.6,4-8.5,6.6-12.8,0.7C47.6,84.2,51,81.8,53.9,84.3L53.9,84.3z"
	/>
</svg>
