<?xml version="1.0" encoding="utf-8"?>
<!-- Generator: Adobe Illustrator 18.0.0, SVG Export Plug-In . SVG Version: 6.00 Build 0)  -->
<!DOCTYPE svg PUBLIC "-//W3C//DTD SVG 1.1//EN" "http://www.w3.org/Graphics/SVG/1.1/DTD/svg11.dtd">
<svg version="1.1" id="Layer_1" xmlns="http://www.w3.org/2000/svg" xmlns:xlink="http://www.w3.org/1999/xlink" x="0px" y="0px"
	 viewBox="0 0 612 792" enable-background="new 0 0 612 792" xml:space="preserve">
<circle fill="#E04F5F" cx="306" cy="396" r="306"/>
<path d="M228.1,312c47.8-25.6,100.7-27.8,148.5-1.1c-42.8-92.4,61.2-148,125.2-81.8c62.3,64,7.8,169.1-76.2,138
	c18.9,31.2,30,77.3,15,112.4c4.5,32.8-36.2,91.2-100.1,100.1c-13.9,15.6-47.3,46.2-90.7-3.3C189.2,569,138,495,159.7,467.8
	c-10.6-37.3,8.9-90.1,24.5-111.3c-60.6,26.1-132.4-45.1-91.8-123C142.4,137.3,278.2,207.4,228.1,312L228.1,312z"/>
<path fill="#FCE2C6" d="M306,324.8c5.6-12.8,22.3-32.3,55.6-15.6c37.8,18.9,57.3,92.9,17.2,134.6c26.1-7.2,56.7,14.5,56.7,42.3
	c0,32.3-40.6,78.4-90.7,88.5c2.2-2.2,11.1-11.7,9.5-14.5c-56.2,64-79,34.5-113.5,1.1c-0.6,2.8,4.5,8.3,6.7,10.6
	c-37.8-12.8-68.4-36.7-82.9-72.3c-12.2-33.9,16.7-61.8,55.6-54c-42.8-57.3-8.3-128,42.8-143C292.1,293.1,303.2,319.2,306,324.8
	L306,324.8z"/>
<path d="M290.4,433.3c3.9-0.6,15-1.1,19.5-0.6c-5-34.5,4.5-88.5,23.4-86.8c16.7,1.7,25,55.6-0.6,91.8c5,2.8,11.7,6.7,15,12.2
	c-33.4-21.7-72.9-11.1-96.3,1.1c2.2-5,11.7-8.3,17.8-11.7c-22.3-29.5-11.7-92.4,9.5-93.5C297.7,343.7,299.3,409.4,290.4,433.3
	L290.4,433.3z"/>
<path fill="#FFFFFF" d="M290.4,414.4c-3.9-30-29.5-0.6-15,22.3c-1.1,0.6-2.2,0.6-3.3,1.1c-20-27.8-9.5-89,6.1-89.6
	C293.2,348.2,293.8,408.2,290.4,414.4L290.4,414.4z"/>
<path fill="#FFFFFF" d="M332.7,349.3c11.7,0,20.6,56.2-3.3,87.3c-1.1,0-2.2-0.6-3.3-1.1c13.4-35.1-10.6-42.3-13.9-19.5
	C310.5,397.1,319.4,348.7,332.7,349.3L332.7,349.3z"/>
<path d="M218.7,469.4c-5,3.3-11.7,5.6-16.7,10c25,59.5,133,87.3,198.1-1.1c-6.7-5.6-13.4-6.1-21.1-8.9c15-3.9,37.3,10,36.7,23.4
	c-3.3-3.9-7.8-10-13.9-13.4c-9.5,15-21.7,26.7-35.1,37.3c-19.5,26.7-33.9,66.8-67.9,70.7c-38.9,4.5-60.6-55.6-70.7-69
	c-11.7-10-22.3-22.3-28.9-36.7c-6.1,5-8.3,10-12.8,15C185.3,486.1,202,468.3,218.7,469.4L218.7,469.4z"/>
<path d="M298.8,445.5c57.9-0.6,53.4,52.3,1.1,55.1C241.5,503.9,240.9,446.1,298.8,445.5L298.8,445.5z"/>
<path fill="#FA8770" d="M299.9,559c0,0-8.3,7.2-8.9,12.8c20-21.7,41.7-12.2,42.8-11.7c-14.5,22.3-47.3,36.7-71.2,3.9
	C264.8,558.5,283.7,545.1,299.9,559L299.9,559z"/>
<g>
	<g>
		<path fill="#FBE158" d="M493.3,548.7l-105,36.1L389,630c0,1.1,0.6,2.2,1.6,2.8c1,0.6,2.3,0.8,3.4,0.4l100-34.4L493.3,548.7z"/>
	</g>
	<g>
		<path fill="#FCF6C2" d="M493.3,548.7l-105,36.1l51.8-63.2C463.2,521.3,484.3,533.9,493.3,548.7z"/>
	</g>
	<g>
		
			<ellipse transform="matrix(5.415489e-03 1 -1 5.415489e-03 1036.6157 164.3652)" fill="#F3B607" cx="435.7" cy="603.3" rx="1.7" ry="1.9"/>
	</g>
	<g>
		
			<ellipse transform="matrix(5.415489e-03 1 -1 5.415489e-03 1042.421 73.9068)" fill="#F3B607" cx="484.1" cy="561" rx="1.7" ry="1.9"/>
	</g>
	<g>
		<path fill="#F3B607" d="M472.3,583.6c-5.1,0.7-9.4-3.2-8.7-7.9c0.5-2.9,3.1-5.3,6.2-5.8c5.1-0.7,9.4,3.2,8.7,7.9
			C478.1,580.8,475.5,583.2,472.3,583.6z"/>
	</g>
	<g>
		
			<ellipse transform="matrix(5.415489e-03 1 -1 5.415489e-03 993.2946 166.8432)" fill="#F3B607" cx="412.8" cy="582.8" rx="1.7" ry="1.9"/>
	</g>
	<g>
		<path fill="#F3B607" d="M422,618.8c0,0-0.1,0.1-0.1,0.1c-1.3,1.7-1.1,3.4-0.2,4.5l6.8-2.3C428.1,618.6,424.9,616.8,422,618.8z"/>
	</g>
	<g>
		
			<ellipse transform="matrix(5.415489e-03 1 -1 5.415489e-03 1049.9985 132.9569)" fill="#F3B607" cx="458.2" cy="594.3" rx="3.5" ry="3.8"/>
	</g>
	<g>
		
			<ellipse transform="matrix(5.415489e-03 1 -1 5.415489e-03 1007.1194 191.289)" fill="#F3B607" cx="407.4" cy="601.9" rx="3.5" ry="3.8"/>
	</g>
	<g>
		<path fill="#FACB1B" d="M440.3,534.6c0-1.4,2.5-2.6,5.6-2.7c3.1,0,5.7,1.1,5.7,2.5s-2.5,2.6-5.6,2.7S440.4,536.1,440.3,534.6z"/>
	</g>
	<g>
		<path fill="#FACB1B" d="M429.3,553.5c0-1.2,2.1-2.2,4.7-2.2c2.6,0,4.7,0.9,4.7,2.1s-2.1,2.2-4.7,2.2
			C431.5,555.6,429.3,554.7,429.3,553.5z"/>
	</g>
	<g>
		<path fill="#FACB1B" d="M453.7,545.8c0-1.9,3.7-3.5,8.4-3.6c4.7-0.1,8.5,1.4,8.5,3.4c0,1.9-3.7,3.5-8.4,3.6
			C457.5,549.2,453.7,547.7,453.7,545.8z"/>
	</g>
	<g>
		
			<ellipse transform="matrix(-0.9999 1.306464e-02 -1.306464e-02 -0.9999 839.936 1125.2102)" fill="#FACB1B" cx="416.3" cy="565.3" rx="3.8" ry="1.7"/>
	</g>
</g>
</svg>
