<?xml version="1.0" encoding="utf-8"?>
<!-- Generator: Adobe Illustrator 16.0.0, SVG Export Plug-In . SVG Version: 6.00 Build 0)  -->
<!DOCTYPE svg PUBLIC "-//W3C//DTD SVG 1.1//EN" "http://www.w3.org/Graphics/SVG/1.1/DTD/svg11.dtd">
<svg version="1.1" id="Layer_1" xmlns="http://www.w3.org/2000/svg" xmlns:xlink="http://www.w3.org/1999/xlink" x="0px" y="0px"
	 width="110px" height="110px" viewBox="0 0 110 110" enable-background="new 0 0 110 110" xml:space="preserve">
<circle fill="#E04F5F" cx="55" cy="55" r="55"/>
<path d="M41.045,39.878c8.57-4.604,18.126-4.966,26.719-0.209c-7.669-16.6,10.955-26.555,22.463-14.741
	c11.21,11.508,1.446,30.444-13.716,24.759c3.376,5.566,5.365,13.945,2.724,20.155c0.791,5.872-6.463,16.423-17.996,18.018
	c-2.501,2.781-8.495,8.272-16.301-0.639C34.085,85.896,24.841,72.606,28.763,67.7c-1.872-6.735,1.559-16.216,4.436-19.969
	c-10.908,4.708-23.828-8.073-16.509-22.09C25.624,8.524,49.957,21.073,41.045,39.878L41.045,39.878z"/>
<path fill="#E04F5F" d="M55.019,42.211c0.985-2.342,4.017-5.787,9.964-2.812c6.784,3.396,10.332,16.688,3.072,24.17
	c4.748-1.303,10.165,2.572,10.175,7.581c0.049,5.801-7.331,14.076-16.306,15.859c0.421-0.434,2.002-2.135,1.745-2.628
	c-10.125,11.49-14.218,6.181-20.432,0.25c-0.062,0.529,0.777,1.517,1.159,1.871c-6.792-2.253-12.289-6.598-14.87-13.036
	c-2.229-6.122,2.959-11.135,9.98-9.659c-7.687-10.254-1.527-23.038,7.678-25.746C52.535,36.489,54.537,41.177,55.019,42.211
	L55.019,42.211z"/>
<path d="M52.158,61.735c0.66-0.141,2.711-0.237,3.481-0.111c-0.894-6.204,0.759-15.908,4.179-15.616
	c3.006,0.257,4.471,10.014-0.123,16.501c0.886,0.545,2.121,1.186,2.719,2.18c-6.032-3.941-13.143-2.014-17.272,0.152
	c0.41-0.853,2.093-1.459,3.233-2.104c-3.998-5.302-2.114-16.558,1.681-16.838C53.496,45.644,53.818,57.382,52.158,61.735
	L52.158,61.735z"/>
<path fill="#E04F5F" d="M52.188,58.329c-0.712-5.359-5.264-0.072-2.668,3.952c-0.158,0.086-0.437,0.1-0.634,0.207
	c-3.649-4.959-1.665-16.013,1.071-16.056C52.695,46.392,52.759,57.181,52.188,58.329L52.188,58.329z"/>
<path fill="#E04F5F" d="M59.759,46.595c2.12,0.047,3.721,10.064-0.585,15.702c-0.175-0.039-0.389-0.14-0.587-0.188
	c2.379-6.289-1.916-7.555-2.499-3.454C55.771,55.183,57.382,46.542,59.759,46.595L59.759,46.595z"/>
<path d="M39.292,68.196c-0.88,0.624-2.114,1.012-2.994,1.765c4.488,10.702,23.894,15.686,35.616-0.216
	c-1.198-0.952-2.442-1.137-3.799-1.573c2.698-0.728,6.706,1.813,6.627,4.172c-0.6-0.664-1.389-1.796-2.487-2.361
	c-1.717,2.66-3.91,4.767-6.265,6.701c-3.537,4.833-6.147,12.044-12.191,12.701c-6.957,0.756-10.9-10.02-12.73-12.373
	c-2.146-1.83-3.972-3.958-5.249-6.565c-1.1,0.949-1.521,1.812-2.328,2.67C33.264,71.247,36.349,68.016,39.292,68.196L39.292,68.196z
	"/>
<path d="M53.737,63.921c10.412-0.104,9.558,9.366,0.233,9.896C43.408,74.42,43.257,64.022,53.737,63.921L53.737,63.921z"/>
<path fill="#E04F5F" d="M53.882,84.292c0.011,0.029-1.502,1.291-1.627,2.302c3.586-3.877,7.472-2.237,7.731-2.132
	c-2.574,4.012-8.468,6.604-12.781,0.696C47.571,84.183,51.032,81.788,53.882,84.292L53.882,84.292z"/>
</svg>
