<?xml version="1.0" encoding="utf-8"?>
<!-- Generator: Adobe Illustrator 16.0.0, SVG Export Plug-In . SVG Version: 6.00 Build 0)  -->
<!DOCTYPE svg PUBLIC "-//W3C//DTD SVG 1.1//EN" "http://www.w3.org/Graphics/SVG/1.1/DTD/svg11.dtd">
<svg version="1.1" id="Layer_1" xmlns="http://www.w3.org/2000/svg" xmlns:xlink="http://www.w3.org/1999/xlink" x="0px" y="0px"
	 width="110px" height="110px" viewBox="0 0 110 110" enable-background="new 0 0 110 110" xml:space="preserve">
<g id="R-Multicolor">
	<circle fill="#E04F5F" cx="55" cy="55" r="55"/>
	<g>
		<g>
			<path fill="#FBE158" d="M27.134,71.232l55.832-20.465l-0.216-26c-0.006-0.65-0.327-1.257-0.862-1.627
				c-0.534-0.371-1.216-0.457-1.826-0.234L26.895,42.395L27.134,71.232z"/>
		</g>
		<g>
			<path fill="#FCF6C2" d="M27.134,71.232l55.832-20.465l-27.7,36.231C43.057,87.101,31.879,79.78,27.134,71.232z"/>
		</g>
		<g>
			<circle fill="#F3B607" cx="57.875" cy="39.976" r="1"/>
		</g>
		<g>
			<circle fill="#F3B607" cx="32.076" cy="64.19" r="1"/>
		</g>
		<g>
			<circle fill="#F3B607" cx="39" cy="55.133" r="4"/>
		</g>
		<g>
			<circle fill="#F3B607" cx="69.974" cy="51.875" r="1"/>
		</g>
		<g>
			<path fill="#F3B607" d="M65.201,31.083c0.025-0.019,0.051-0.043,0.07-0.068c0.713-0.961,0.62-1.934,0.137-2.603l-3.604,1.321
				C61.919,31.209,63.614,32.236,65.201,31.083z"/>
		</g>
		<g>
			<circle fill="#F3B607" cx="45.917" cy="45.075" r="2"/>
		</g>
		<g>
			<circle fill="#F3B607" cx="72.883" cy="40.851" r="2"/>
		</g>
		<g>
			<ellipse transform="matrix(0.0083 1 -1 0.0083 131.2922 26.6623)" fill="#FACB1B" cx="52.204" cy="79.524" rx="1.5" ry="3"/>
		</g>
		<g>
			<ellipse transform="matrix(0.0086 1 -1 0.0086 126.8287 9.5181)" fill="#FACB1B" cx="58.614" cy="68.721" rx="1.25" ry="2.5"/>
		</g>
		<g>
			<ellipse transform="matrix(0.0083 1 -1 0.0083 116.3798 28.8396)" fill="#FACB1B" cx="43.65" cy="73.095" rx="2" ry="4.5"/>
		</g>
		<g>
			<ellipse transform="matrix(0.0083 1 -1 0.0083 129.3827 -6.6779)" fill="#FACB1B" cx="68.058" cy="61.892" rx="1" ry="2.001"/>
		</g>
	</g>
</g>
</svg>
