<?xml version="1.0" encoding="utf-8"?>
<!-- Generator: Adobe Illustrator 16.0.0, SVG Export Plug-In . SVG Version: 6.00 Build 0)  -->
<!DOCTYPE svg PUBLIC "-//W3C//DTD SVG 1.1//EN" "http://www.w3.org/Graphics/SVG/1.1/DTD/svg11.dtd">
<svg version="1.1" id="Layer_1" xmlns="http://www.w3.org/2000/svg" xmlns:xlink="http://www.w3.org/1999/xlink" x="0px" y="0px"
	 width="612px" height="792px" viewBox="0 0 612 792" enable-background="new 0 0 612 792" xml:space="preserve">
<path d="M389.216,418.396c4.147,5.952-2.338,12.774-6.849,11.058c2.354,2.912,4.068,10.029-0.462,14.27
	c0.043,1.471-2.855,3.141-3.644,3.329c0.731,2.386-3.923,1.671-4.769,1.463c-2.605,1.334-15.282-0.781-11.277-5.882
	c-2.121-2.987-2.429-7.443,0.284-11.649c-5.645,2.271-9.097-3.017-7.477-8.215c3.327-9.483,14.521-5.797,10.687,4.522
	c1.876-1.518,5.704-2.387,8.215-2.095c0.427-0.359,1.299-0.675,2.35,0.151c0.441,0.107,0.82,0.213,1.236,0.365
	C373.102,417.795,383.393,410.039,389.216,418.396L389.216,418.396z"/>
<path fill="#FFFFFF" d="M377.465,427.172c-0.233-0.528-0.468-1.057-0.919-1.517C377.149,425.979,377.375,426.613,377.465,427.172
	L377.465,427.172z"/>
<path fill="#FFFFFF" d="M372.519,427.027c0.13-0.677,0.576-1.171,1.078-1.493C373.1,426.042,372.747,426.605,372.519,427.027
	L372.519,427.027z"/>
<path fill="#FFFFFF" d="M376.139,440.461c1.964-0.181,5.676,0.347,5.676,2.396c-0.021,1.357-1.053,2.688-3.66,3.917
	c-0.19-0.246-0.399-0.401-0.702-0.553c1.806,2.707-2.248,2.433-4.729,2c0.141,0.114,0.361,0.222,0.598,0.264
	c-1.955,0.374-4.229,0.191-6.227-0.347c-3.232-0.896-6.388-2.86-4.609-5.239c0.541-0.665,1.584-1.201,2.139-1.446
	c-1.535-3.541-2.883-8.227,0.807-12.582c0.103,1.497,0.433,3.078,1.094,4.427c-0.715,2.037-0.527,5.326,0.907,6.812
	c-0.445,0.134-1.13,0.323-1.381,0.803c1.591-0.724,4.568-1.259,7.549-0.054c-0.228-0.286-0.657-0.528-1.13-0.68
	c0.648-1.141,0.967-3.636,0.587-5.445c0.073-0.978-0.567-2.642-1.296-3.133c0.508-2.411,2.36-4.987,3.091-4.854
	C376.355,427.019,379.723,433.613,376.139,440.461L376.139,440.461z"/>
<path fill="#FFFFFF" d="M372.823,435.177c0.119,1.607,0.005,3.32-0.639,4.914c-0.247-0.068-0.771-0.18-1.139-0.226
	c-0.484-1.014-0.658-2.28-0.636-3.419c0.197-0.4,0.4-1.794,0.676-2.731C371.552,434.789,372.048,435.575,372.823,435.177
	L372.823,435.177z"/>
<path fill="#FFFFFF" d="M369.083,436.192c-0.457-0.501-0.389-1.399-0.116-2.046C368.847,434.791,368.791,435.6,369.083,436.192
	L369.083,436.192z"/>
<path fill="#FFFFFF" d="M367.326,434.771c0.109,1.475,0.837,2.456,1.472,2.014c0.146,0.936,0.133,2.006-0.149,3.055
	c-0.329,0.053-0.647,0.111-0.932,0.178c-1.309-1.338-1.48-4.728-0.974-6.328C366.897,433.986,367.052,434.272,367.326,434.771
	L367.326,434.771z"/>
<path fill="#FFFFFF" d="M370.654,439.81c-0.418-0.034-1.207-0.044-1.626,0.011c0.304-1.139,0.209-2.234,0.046-3.347
	c0.232,0.247,0.632,0.408,0.967,0.339C369.994,437.828,370.341,439.282,370.654,439.81L370.654,439.81z"/>
<path d="M369.26,445.191c2.024-0.026,3.635-0.993,3.598-2.16c-0.038-1.166-1.71-2.092-3.733-2.065
	c-2.024,0.026-3.636,0.993-3.598,2.16S367.235,445.217,369.26,445.191L369.26,445.191z"/>
<path d="M374.729,447.896c2.076,0.304,1.689-0.83,0.107-0.991C373.628,446.782,372.587,447.583,374.729,447.896L374.729,447.896z"/>
<path d="M252,438.866c0.339-3.307-0.935-6.862-3.359-9.28c6.009,1.147,11.224-6.541,4.207-12.336
	c-7.354-6.072-15.31,1.677-9.245,9.033c-2.264-0.753-5.808-0.301-7.724,0.476c1.727-3.368-2.513-11.166-9.351-9.534
	c-7.821,1.866-5.535,13.754,4.287,13.341c-3.132,3.536-2.52,7.743-2.21,8.792c-2.222,3.454,3.079,8.09,7.91,8.771
	c6.048,5.888,9.836,0.49,10.147-0.559C248.292,447.11,253.556,443.124,252,438.866L252,438.866z"/>
<path fill="#FFFFFF" d="M246.038,437.507c4.504-2.832,10.039,3.857,0.647,9.757c0.104-0.275,0.228-0.838,0.227-1.25
	c-0.473,1.272-1.354,3.761-4.356,4.334c-3.46,0.662-5.946-3.199-6.677-3.097c0.099,0.113,0.258,0.251,0.377,0.402
	c-6.536-1.178-10.942-8.32-4.821-9.428c-2.086-4.348,0.13-8.652,3.106-10.344c2.294-1.303,2.43,1.125,2.628,1.903
	c0.847-1.616,1.946-3.587,3.957-3.454C245.082,426.593,248.224,432.638,246.038,437.507L246.038,437.507z"/>
<path d="M240.847,433.861c-0.876-0.237-1.412-0.304-2.333,1.146C238.875,433.409,240.633,433.116,240.847,433.861L240.847,433.861z"
	/>
<path d="M241.427,435.326c-0.879-0.707-2.017-0.479-2.783,0.522C239.227,434.052,241.578,434.224,241.427,435.326L241.427,435.326z"
	/>
<path d="M239.729,436.457c0.5,0.049,1.624-0.214,1.826-0.605C241.41,436.576,239.92,436.746,239.729,436.457L239.729,436.457z"/>
<path d="M236.535,434.976c-0.752-1.11-1.528-0.756-1.915-0.211C234.988,433.432,236.592,434.152,236.535,434.976L236.535,434.976z"
	/>
<path d="M248.961,440.867c-0.335-0.356-0.717-0.671-1.184-0.886c-0.172,0.925-0.891,2.016-1.434,2.635
	c-0.248,1.997-0.123,5.799-3.613,6.776c-3.489,0.979-6.097-3.349-7.178-4.907c-1.164-0.296-3.168-1.505-3.629-2.298
	c-0.331,0.195-0.657,0.684-0.849,0.93c-0.092-0.936,1.549-2.261,2.43-1.839c-0.49,0.147-1.045,0.347-1.409,0.738
	c5.244,4.828,13.771,3.126,15.375-2.127c-0.592-0.309-1.475-0.398-1.858-0.423C246.016,438.913,248.678,439.573,248.961,440.867
	L248.961,440.867z"/>
<path d="M234.528,438.765c1.025-2.026,5.005-2.554,7.11-1.447C241.196,437.305,237.048,436.188,234.528,438.765L234.528,438.765z"/>
<path d="M236.845,436.036c-1.084-0.696-1.682-0.572-2.098,0.298C234.451,435.217,236.254,434.711,236.845,436.036L236.845,436.036z"
	/>
<path d="M241.893,439.159c0.801,3.122-6.378,4.028-7.009,1.295C234.17,437.361,241.171,436.346,241.893,439.159L241.893,439.159z"/>
<path d="M234.357,436.947c0.772,0.396,1.67,0.02,2.031-0.366C236.476,437.032,234.813,437.7,234.357,436.947L234.357,436.947z"/>
<path fill="#FFFFFF" d="M245.563,445.733c-0.434,2.768-3.66,4.473-6.291,2.575c0.387-1.021,2.23-1.899,2.995-1.586
	c-0.097,0.145-0.268,0.458-0.278,0.76C243.187,445.836,244.403,445.2,245.563,445.733L245.563,445.733z"/>
<path d="M320.595,439.48c3.271,5.064-5.578,9.104-7.758,8.655c-1.667,1.025-3.527,1.902-4.425,0.225
	c-3.943-0.32-7.63-2.66-7.08-5.561c0,0-2.498-2.719-1.427-9.085c-6.356,3.157-9.233-3.47-8.228-8.788
	c1.006-5.323,6.268-7.64,9.488-4.923c3.457,2.916,1.593,8.67,1.593,8.67s3.072-4.104,8.739-4.197
	c0.139-0.287,0.609-1.037,1.261-1.148c0,0-2.379-5.268,1.578-9.527c3.966-4.27,11.478,0.076,9.422,7.429
	c-0.485,1.939-1.71,4.615-5.434,6.157C321.557,430.633,321.953,436.378,320.595,439.48L320.595,439.48z"/>
<path fill="#FFFFFF" d="M316.812,425.888c-1.025-1.875-3.226-2.558-3.749-2.583C313.644,423.222,315.802,423.804,316.812,425.888
	L316.812,425.888z"/>
<path fill="#FFFFFF" d="M313.63,447.329c-0.104,0.176-0.39,0.474-0.56,0.657c7.771-2.054,9.739-7.514,5.476-9.451
	c0.692-7.502-2.889-13.097-4.958-13.503c-1.378-0.173-2.521,2.782-2.756,3.227c-5.535-6.366-8.813,5.544-6.675,11.688
	c-6.713,4.682,2.393,8.161,4.278,8.157c0.015-0.14-0.014-0.332,0.027-0.484C308.754,448.864,309.775,449.638,313.63,447.329
	L313.63,447.329z"/>
<path d="M312.079,446.872c0.166,1.046-2.639,1.548-2.092,0.554C310.254,446.914,311.991,446.383,312.079,446.872L312.079,446.872z"
	/>
<path fill="#FFFFFF" d="M311.331,424.783c-0.134,0.206-0.444,0.751-0.576,0.958C310.833,425.23,311.141,424.869,311.331,424.783
	L311.331,424.783z"/>
<path d="M312.312,443.113c4.649-0.809,4.074-5.264-0.681-4.235S307.929,443.875,312.312,443.113L312.312,443.113z"/>
<path d="M310.832,438.105c0.928-1.146,0.124-7.689-1.523-7.229c-1.863,0.521-1.885,6.146-0.041,7.825
	c-0.457,0.249-0.982,0.513-1.273,0.997c2.119-1.302,4.972-2.133,7.548-1.219c-0.271-0.264-1.062-0.551-1.565-0.623
	c1.784-4.169,0.261-8.271-0.969-8.115c-1.593,0.189-1.783,6.128-0.623,8.087C312.384,437.828,311.394,437.953,310.832,438.105
	L310.832,438.105z"/>
<path fill="#FFFFFF" d="M313.755,437.828c-0.385-0.055-0.645-0.055-1.06-0.041c-1.662-3.096-0.295-8.428,0.603-7.741
	C313.907,430.364,315.205,433.602,313.755,437.828L313.755,437.828z"/>
<path fill="#FFFFFF" d="M309.572,438.535c0.424-0.211,1.027-0.381,1.027-0.381c1.063-3.237-0.57-7.202-1.208-7.028
	C308.091,431.541,307.554,436.613,309.572,438.535L309.572,438.535z"/>
<path d="M312.522,433.802c0.855-0.034,1.006,2.836,0.253,2.894C312.072,436.748,311.864,433.829,312.522,433.802L312.522,433.802z"
	/>
<path d="M310.458,436.9c-0.879,0.873-1.104-2.313-0.29-2.688C310.753,433.946,310.998,436.345,310.458,436.9L310.458,436.9z"/>
<path fill="#FFFFFF" d="M263.456,417.163c0.073,0.222,0.412,1.491,0.59,2.808c0,0,0.227-1.162-0.393-2.89L263.456,417.163
	L263.456,417.163z"/>
<path fill="#FFFFFF" d="M342.989,389.346c0.071,0.109,0.171,0.472,0.06,1l-0.127-0.289L342.989,389.346L342.989,389.346z"/>
<path fill="#FFFFFF" d="M350.208,389.292l0.102,0.068c0,0-0.183,0.788-0.817,1.675l-0.147-0.235c0,0-0.102,0.13,0,0
	C349.446,390.669,349.954,390.045,350.208,389.292L350.208,389.292z"/>
<path fill="#FFFFFF" d="M239.625,429.539c-0.002,0.107,0.076,0.699,0.203,0.896c0,0-0.046-0.801,0.047-1.035L239.625,429.539
	L239.625,429.539z"/>
<path d="M303.58,346.484c7.341-0.346,10.301,7.77,3.527,11.978c4.834,0.838,6.647,3.337,6.661,3.337
	c-0.26-5.488,4.487-9.213,8.985-7.014c3.771,2.026,4.836,9.112,0.155,12.332c-1.809,1.142-4.377,1.461-6.426,0.028
	c0.857,3.808-0.321,9.01-4.137,12.055c-0.865,4.648-6.604,2.821-7.021,2.597c-1.346,0.641-2.564,0.353-3.042,0.128
	c-3.768,1.222-8.586-0.294-9.802-3.507c-1.921-0.288-5.308-3.805-2.396-6.149c2.34-1.786,3.781,0.804,4.404,1.551
	c0.166-0.111,0.333-0.229,0.467-0.339c-2.216-3.556-1.236-12.094,7.385-14.479C293.719,357.637,296.24,346.83,303.58,346.484
	L303.58,346.484z"/>
<path fill="#FFFFFF" d="M304.006,363.268c1.205,2.313,1.731,5.055,1.593,7.907c1.714-2.862,5.305-4.141,8.005-3.157
	c1.371,0.436,2.84,2.569,2.438,4.376c-0.34,1.489-1.383,4.282-3.643,6.371c0.125-0.97,0.195-2.542,0.232-3.075
	c-0.531,0.326-0.323,3.578-1.354,4.875c-2.175,2.576-5.801,0.829-6.232,0.942c0.058,0.058,0.074,0.106,0.083,0.152
	c-0.796,0.225-1.514,0.189-2.248,0.064c0.461-0.125,1.645-0.707,2.179-0.992c1.481,0.817,3.794,1.08,5.193-0.139
	c1.833-1.833,0.367-4.435,0.171-6.501c-0.108-0.498,0.147-2.017,0.188-2.75c0.513-0.097,0.956,0.083,1.398,0.167
	c-0.988-1.233-3.223-0.097-3.49,0.748c0.526-0.333,1.122-0.762,1.76-0.887c-0.227,5.175-3.956,8.079-5.43,9.016
	c-4.501,2.807-10.521,1.196-11.771-1.786c2.282,0.18,3.594-2.278,1.662-4.474c1.094-0.956,2.881-0.956,4.238-0.512
	c-0.305-0.318-0.788-0.499-1.287-0.568c-0.071-0.255-0.395-1.078-0.516-1.318c-0.503-1.374-1.119-3.038-1.731-2.92
	c-1.073,0.208-0.967,2.959,0.251,4.376c-0.152,0.055-0.328,0.097-0.457,0.166c-1.219-2.147-1.177-6.063,0.167-8.407
	c0.36,0.083,0.651,0.513,0.831,0.832c0.3-2.618,1.593-3.947,2.895-4.875C299.99,360.364,302.085,359.847,304.006,363.268
	L304.006,363.268z"/>
<path d="M300.503,370.519c0.247,1.291,0.125,2.382-0.476,2.498c-2.406,0.381-3.847-6.36-1.959-7.416
	C299.108,365.092,300.22,368.171,300.503,370.519L300.503,370.519z"/>
<path fill="#FFFFFF" d="M300.156,370.331c-0.938-1.229-1.582,1.343-0.457,2.493c-2.565-1.188-2.482-6.626-1.551-6.99
	C299.166,365.528,299.962,369.122,300.156,370.331L300.156,370.331z"/>
<path fill="#FFFFFF" d="M296.804,371.535c-0.741-0.131-0.39,1.097-0.18,1.496c-0.152,0.021-0.494,0.062-0.623,0.097
	c-1.073-1.214-1.309-3.848-0.609-4.044C295.92,368.964,296.472,370.871,296.804,371.535L296.804,371.535z"/>
<path fill="#FFFFFF" d="M307.136,380.982c-0.337-1.091,0.514-2.402,1.62-2.647c0.032,0.221,0.113,0.796,0.374,0.941
	c-0.124-1.149,0.125-2.673,1.219-3.324C312.045,380.454,308.888,381.386,307.136,380.982L307.136,380.982z"/>
<path d="M369.212,354.609c3.813-2.049,8.066-2.21,11.891-0.093c-3.413-7.387,4.875-11.818,9.996-6.56
	c4.988,5.121,0.644,13.548-6.104,11.018c1.502,2.477,2.388,6.205,1.211,8.969c0.353,2.613-2.875,7.309-8.008,8.019
	c-1.113,1.237-3.78,3.681-7.254-0.284c-4.829-0.59-8.943-6.504-7.198-8.688c-0.833-2.997,0.693-7.216,1.974-8.886
	c-4.854,2.095-10.604-3.593-7.347-9.83C362.35,340.656,373.178,346.24,369.212,354.609L369.212,354.609z"/>
<path fill="#FFFFFF" d="M375.431,355.647c0.438-1.042,1.787-2.575,4.434-1.251c3.02,1.511,4.599,7.426,1.367,10.757
	c2.113-0.581,4.524,1.144,4.528,3.372c0.021,2.583-3.263,6.265-7.256,7.058c0.187-0.193,0.891-0.949,0.776-1.169
	c-4.506,5.113-6.327,2.75-9.093,0.111c-0.027,0.236,0.346,0.675,0.516,0.833c-3.022-1.002-5.469-2.936-6.617-5.802
	c-0.992-2.724,1.316-4.955,4.441-4.298c-3.421-4.563-0.68-10.252,3.417-11.457C374.325,353.101,375.216,355.187,375.431,355.647
	L375.431,355.647z"/>
<path d="M374.157,364.336c0.294-0.062,1.207-0.106,1.55-0.05c-0.398-2.761,0.338-7.079,1.859-6.949
	c1.338,0.114,1.989,4.456-0.055,7.342c0.395,0.244,0.944,0.529,1.21,0.971c-2.685-1.754-5.849-0.896-7.687,0.068
	c0.183-0.379,0.932-0.649,1.438-0.937c-1.779-2.359-0.94-7.368,0.748-7.493C374.753,357.175,374.896,362.398,374.157,364.336
	L374.157,364.336z"/>
<path fill="#FFFFFF" d="M374.171,362.82c-0.317-2.385-2.343-0.032-1.188,1.759c-0.07,0.038-0.194,0.044-0.282,0.092
	c-1.624-2.207-0.741-7.126,0.477-7.145C374.396,357.508,374.425,362.309,374.171,362.82L374.171,362.82z"/>
<path fill="#FFFFFF" d="M377.54,357.598c0.943,0.021,1.655,4.479-0.261,6.988c-0.077-0.017-0.173-0.063-0.261-0.084
	c1.059-2.799-0.853-3.362-1.112-1.537C375.765,361.42,376.482,357.574,377.54,357.598L377.54,357.598z"/>
<path d="M368.432,367.211c-0.392,0.277-0.94,0.45-1.332,0.785c1.997,4.763,10.633,6.981,15.85-0.096
	c-0.533-0.423-1.087-0.505-1.69-0.7c1.201-0.323,2.984,0.807,2.949,1.856c-0.267-0.295-0.618-0.798-1.107-1.05
	c-0.764,1.183-1.74,2.121-2.787,2.982c-1.574,2.15-2.736,5.36-5.426,5.652c-3.096,0.336-4.851-4.458-5.665-5.506
	c-0.955-0.813-1.768-1.761-2.336-2.922c-0.489,0.423-0.677,0.807-1.036,1.189C365.749,368.568,367.122,367.131,368.432,367.211
	L368.432,367.211z"/>
<path d="M374.86,365.308c4.633-0.046,4.253,4.168,0.104,4.404C370.264,369.98,370.196,365.354,374.86,365.308L374.86,365.308z"/>
<path fill="#FFFFFF" d="M374.925,374.374c0.005,0.013-0.669,0.574-0.725,1.025c1.596-1.726,3.325-0.996,3.44-0.949
	c-1.146,1.785-3.769,2.938-5.688,0.31C372.116,374.325,373.656,373.26,374.925,374.374L374.925,374.374z"/>
<path d="M338.797,387.759c1.012-1.135,4.766-4.016,6.371-0.623c0.312,0.029,0.73,0.13,1.025,0.208
	c1.676-1.565,3.171-0.055,3.613,0.277c-0.947-6.918,7.916-10.436,11.379-5.035s-1.754,12.43-7.195,10.408
	c1.896,3.809,1.717,7.796,0.388,10.415c0.235,2.991-4.98,6.798-8.016,6.884c-2.053,1.624-4.597,3.355-7.802-0.663
	c-3.143-0.919-7.865-4.897-6.438-8.839c-0.706-2.271-0.201-7.028,2.59-9.68c-5.754,1.828-9.578-3.17-6.828-9.251
	C331.658,373.516,342.522,378.245,338.797,387.759L338.797,387.759z"/>
<path fill="#FFFFFF" d="M345.417,389.574c1.628-2.348,3.56-1.939,5.014,0.416c1.454,2.354,2.818,5.989,1.108,10.595
	c6.633,3.372-1.808,9.05-4.986,9.444c0.223-0.291,0.479-0.631,0.609-0.969c-3.912,3.987-6.468,3.232-9.085-0.651
	c-0.083-0.015,0.249,0.637,0.374,0.887c-8.191-3.69-7.776-11.024-1.371-10.47c-1.212-2.217-0.142-7.073,2.871-10.154
	C342.963,385.589,344.185,386.908,345.417,389.574L345.417,389.574z"/>
<path fill="#FFFFFF" d="M345.598,388.022c0.098-0.166,0.207-0.36,0.347-0.485c-0.069,0.222-0.235,0.443-0.347,0.624
	c-0.139-0.222-0.193-0.471-0.276-0.72C345.453,387.519,345.528,387.908,345.598,388.022L345.598,388.022z"/>
<path fill="#FFFFFF" d="M351.497,390.197c-0.346-0.678-0.887-1.426-1.261-2.174C350.631,388.507,351.262,389.352,351.497,390.197
	L351.497,390.197z"/>
<path d="M344.38,397.208c-0.038,0.556-0.278,1.185-0.398,1.34c0.381-0.019,0.993-0.014,1.423,0.056
	c-0.07-0.278-0.128-0.471-0.097-0.929c-0.075-1.713,0.532-6.276,2.024-6.017c1.57,0.272,1.811,5.183-0.197,7.486
	c0.347,0.192,0.692,0.457,0.914,0.774c-1.813-1.219-4.626-1.356-6.703-0.513c0.156-0.225,0.706-0.457,1.095-0.609
	c-1.873-1.974-0.692-8.112,1.038-8.129C345.262,390.65,345.229,394.94,344.38,397.208L344.38,397.208z"/>
<path fill="#FFFFFF" d="M344.323,396.732c-0.582-2-1.991,0.19-1.302,1.871c-0.104,0.041-0.235,0.078-0.348,0.082
	c-1.812-2.253-0.312-7.808,0.866-7.686C344.84,391.134,344.843,394.757,344.323,396.732L344.323,396.732z"/>
<path fill="#FFFFFF" d="M347.292,391.936c1.265,0.237,1.373,5.064-0.352,7.083c-0.083-0.053-0.318-0.125-0.498-0.181
	c1.104-2.482-0.396-3.109-0.872-1.661C345.625,395.456,346.321,391.754,347.292,391.936L347.292,391.936z"/>
<path d="M347.829,401.797c-0.291,3.046-6.989,2.663-6.816-0.349C341.188,398.436,348.105,398.889,347.829,401.797L347.829,401.797z"
	/>
<path d="M338.174,401.316c-0.18,0.069-1.26,0.14-1.495,0.306c1.073,5.346,10.679,7.104,14.07,1.69
	c-0.249-0.277-0.65-0.459-1.024-0.568c0.645-0.284,2.646,0.679,2.105,2.242c-0.056-0.637-0.347-1.26-0.9-1.592
	c-0.544,1.072-1.699,2.063-2.825,2.797c-2.316,3.086-3.619,4.648-5.922,4.504c-2.119-0.18-3.111-1.941-4.218-6.074
	c-0.97-0.999-1.301-1.863-1.467-2.916c-0.664,0.152-1.121,0.691-1.62,1.136C335.211,401.622,336.935,400.757,338.174,401.316
	L338.174,401.316z"/>
<path fill="#FFFFFF" d="M342.592,409.129c0.023-0.277-0.192-0.804-0.332-0.982c0.66-0.203,2.128,0.16,2.59,1.302
	c-2.502,1.864-4.884,0.762-5.803-2.535C339.116,406.742,340.662,406.438,342.592,409.129L342.592,409.129z"/>
<path d="M249.372,346.037c1.145,1.807,1.87,7.037-3.774,9.431c4.076,1.624,6.824,6.492,6.709,9.599
	c4.53,1.568,0.174,9.487-6.905,12.087c-1.301,1.538-4.266,3.738-6.592,0.984c-0.191-0.254-0.369-0.433-0.548-0.693
	c-2.741-0.027-5.799-1.32-6.415-4.108c-2-2.148-3.034-5.267-2.723-8.187c-5.851,4.399-11.179-0.499-11.591-5.139
	c-0.402-5.718,3.374-9.202,6.93-8.393c2.901,0.615,6.062,4.155,5.936,9.141c2.154-3.675,5.676-6.054,9.486-6.178
	c-7.147-5.349-2.421-11.413,0.644-12.341C243.592,341.188,247.271,342.798,249.372,346.037L249.372,346.037z"/>
<path fill="#FFFFFF" d="M244.208,360.153c-0.161-1.336,0.838-3.789,2.074-3.589c2.788,0.462,4.924,6.346,3.778,8.933
	c7.52-0.941,2.567,8.505-4.713,11.354c0.017-0.031,0.024-0.079,0.024-0.112c-1.137,1.106-2.639,2.407-4.437,2.16
	c-1.584-0.168-2.199-1.849-3.418-2.564c0.029,0.31,0.238,0.513,0.373,0.681c-2.063-0.045-5.856-1.709-5.684-4.699
	c0.155-1.954,2.786-3.931,6.836-3.193c-5.169-2.799-4.259-12.598-1.167-13.522C241.453,354.693,244.105,360.072,244.208,360.153
	L244.208,360.153z"/>
<path d="M244.198,368.759c0.669-1.84-0.385-8.233-2.532-7.887c-1.882,0.444-0.871,5.899,0.717,7.402
	c0.116,0.444,0.674,1.061,1.093,1.245c-0.162,0.223-0.219,0.433-0.196,0.662c1.205-1.505,3.015-2.813,5.212-2.649
	C247.343,366.886,245.368,367.727,244.198,368.759L244.198,368.759z"/>
<path d="M247.852,366.606c-0.317,0.398-0.756,0.496-0.752,0.636c1.038-0.107,1.394-1.325,1.309-1.401
	C248.297,365.795,248.155,366.264,247.852,366.606L247.852,366.606z"/>
<path fill="#FFFFFF" d="M244,368.39c-0.934-3.202-2.077-2.108-1.842-0.753c-1.122-1.731-1.847-6.471-0.271-6.491
	C243.26,361.375,244.363,365.998,244,368.39L244,368.39z"/>
<path d="M247.836,363.756c-0.571-0.605-0.863-0.119-1.208,0.36c-0.306,0.448-0.562,1.254-0.643,1.446
	C246.034,363.246,247.658,362.779,247.836,363.756L247.836,363.756z"/>
<path d="M248.424,365.339c-1.34-0.53-2.169,1.402-2.409,1.789C246.077,366.081,247.69,364.023,248.424,365.339L248.424,365.339z"/>
<path d="M252.765,368.268c-0.184-0.02-0.436-0.135-0.658-0.145c0.866,3.597-2.923,6.974-6.768,7.985
	c-1.248,1.26-2.963,2.721-4.99,2.004c-1.61-0.623-2.153-4.115-3.085-5.3c-0.432,0.261-0.713,0.676-1.044,1.045
	c0.117-1.363,2.375-2.3,3.223-1.886c-0.886,0.115-1.494,0.426-1.832,0.599c1.123,2.315,4,3.769,7.635,3.236
	c2.728-0.453,7.656-4.013,6.485-7.668c-0.194-0.007-0.416,0.021-0.588,0.035C251.254,367.894,252.303,367.592,252.765,368.268
	L252.765,368.268z"/>
<path d="M250.241,369.138c1.705,2.305-4.263,6.087-5.864,3.793C242.839,370.522,248.554,366.992,250.241,369.138L250.241,369.138z"
	/>
<path fill="#FFFFFF" d="M241.606,377.16c0.051-0.243-0.034-0.602-0.232-0.832c0.577-0.322,2.023,0.029,2.337,0.806
	c-0.799,0.663-2.091,1.063-3.152,0.695c-1-0.39-1.324-1.687-1.776-2.682C240.173,375.132,241.066,376.476,241.606,377.16
	L241.606,377.16z"/>
<path d="M273.018,374.814c2.681,2.56,2.856,6.757,0.789,9.381c6.66,0.283,11.761,6.712,10.875,12.223
	c0.164-0.039,0.451-0.056,0.654-0.066c0.811-5.339,4.294-3.939,5.064-3.083c1.43,1.542,0.735,5.01-1.594,6.617
	c0.11,2.218-3.061,8.995-11.535,7.605c-0.882,0.778-3.065,0.829-4.741-0.325c-6.58-0.604-8.568-3.246-9.787-8.158
	c-3.892,6.242-11.166,3.286-13.497-2.632c-1.602-4.362,0.604-9.45,6.146-9.357c2.814,0.186,5.828,2.693,7.122,5.872
	c0.626-2.182,2.307-5.401,5.019-7.013c-3.054-0.092-5.591-2.44-6.377-4.952C259.411,373.595,267.475,369.817,273.018,374.814
	L273.018,374.814z"/>
<path fill="#FFFFFF" d="M280.998,389.922c0.101-0.12,0.204-1.207,0.366-1.706c2.136,1.947,3.371,5.316,2.924,8.283
	c-0.116,0.062-0.271,0.087-0.409,0.124c0.241-2.276-0.407-4.155-1.255-3.982c-0.26,0.091-0.646,0.973-0.487,1.844
	c-0.035,1.24,0.089,2.703,0.125,3.024c-0.188,0.104-0.38,0.396-0.518,0.652c1.019-0.595,2.185-1.263,3.504-1.334
	c-0.802,3.048,1.425,4.194,3.119,3.338c0.079,2.122-2.51,6.896-8.506,7.176c-7.068,0.083-9.706-3.808-9.336-6.842
	c0.909-0.065,1.805,0.093,2.679,0.229c-1.196-1.125-4.527-0.797-5.225,0.267c0.501-0.144,1.487-0.493,2.262-0.509
	c-0.47,2.307,1.468,6.219,6.661,6.949c-0.128,0.266-2.894,1.231-5.282-1.5c0.033,0.531,0.669,0.947,0.664,1.018
	c-6.165-0.682-9.831-4.852-7.167-8.973c0.833-1.145,3.597-3.492,9.358,0.674c-1.497-2.034-4.469-9.593-0.481-12.979
	c0.927-0.717,2.292-0.786,3.272-0.252C277.958,385.753,279.763,387.048,280.998,389.922L280.998,389.922z"/>
<path d="M280.314,398.468c-1.292,0.149-2.067-2.481-2.022-4.88c-0.21-1.016,0.067-2.557,0.754-2.611
	C281.372,390.805,282.242,398.157,280.314,398.468L280.314,398.468z"/>
<path fill="#FFFFFF" d="M280.744,393.573c0.57,2.393,0.206,4.509-0.4,4.593c-1.37,0.158-1.693-3.498-1.717-4.368
	c0.682,0.782,1.691-0.361,0.922-2.393C280.273,391.86,280.575,392.909,280.744,393.573L280.744,393.573z"/>
<path fill="#FFFFFF" d="M283.529,396.745c-0.322,0.174-0.708,0.38-0.968,0.508c-0.075-0.893-0.12-1.777-0.105-2.664
	c0.125,0.084,0.766,0.242,0.704-1.334C283.711,394.368,283.702,395.625,283.529,396.745L283.529,396.745z"/>
</svg>
